<svg width="1440" height="1623" viewBox="0 0 1440 1623" fill="none" xmlns="http://www.w3.org/2000/svg">
<path d="M-524.274 1018.39L33.5903 165.385C90.4766 78.4021 227.469 125.731 217.161 228.807L197.42 426.178C187.646 523.909 312.75 574.387 374.984 497.822L708.204 87.8659C771.297 10.2492 898.015 63.3018 885.482 162.083L800.925 828.258C788.204 928.502 918.201 980.8 979.94 900.27L1202.73 609.658C1261.78 532.634 1386.28 576.704 1382.44 673.271L1377.06 808.539C1373.44 899.744 1486.41 946.665 1549.81 880.288L1974.32 435.843C2037.82 369.353 2150.97 416.558 2147.04 507.905L2099.24 1620.25" stroke="#6F3689" stroke-opacity="0.12" stroke-width="100"/>
</svg>
